<svg xmlns="http://www.w3.org/2000/svg" viewBox="0 0 792 1224"><defs><style>.cls-1{fill:none;}.cls-1,.cls-2{stroke:#999;stroke-miterlimit:10;stroke-width:4px;}.cls-2{fill:#999;}</style></defs><g id="Design"><circle class="cls-1" cx="227.5" cy="664.5" r="76.5"/><line class="cls-1" x1="228" y1="588" x2="228" y2="741"/><line class="cls-1" x1="305" y1="664" x2="152" y2="664"/><line class="cls-1" x1="285" y1="614" x2="170" y2="715"/><line class="cls-1" x1="286" y1="716" x2="171" y2="613"/><circle class="cls-1" cx="514.5" cy="664.5" r="76.5"/><line class="cls-1" x1="515" y1="588" x2="515" y2="741"/><line class="cls-1" x1="592" y1="664" x2="439" y2="664"/><line class="cls-1" x1="572" y1="614" x2="457" y2="715"/><line class="cls-1" x1="573" y1="716" x2="458" y2="613"/><polygon class="cls-1" points="293 572 227.7 664 354 664 293 572"/><polygon class="cls-1" points="357.85 663 473 543 296 570 357.85 663"/><line class="cls-1" x1="516" y1="664" x2="477" y2="541"/><line class="cls-1" x1="358" y1="644" x2="359" y2="684"/><line class="cls-1" x1="378" y1="684" x2="357" y2="684"/><line class="cls-1" x1="359" y1="646" x2="338" y2="646"/><line class="cls-1" x1="296" y1="570" x2="275" y2="538"/><ellipse class="cls-2" cx="286" cy="534" rx="29" ry="5"/><line class="cls-1" x1="477" y1="541" x2="466" y2="505"/><line class="cls-1" x1="398" y1="497" x2="468" y2="506"/></g></svg>