<svg xmlns="http://www.w3.org/2000/svg" viewBox="0 0 792 1224"><defs><style>.cls-1{fill:none;}.cls-1,.cls-2{stroke:#999;stroke-miterlimit:10;stroke-width:4px;}.cls-2{fill:#999;}</style></defs><g id="Design"><rect class="cls-1" x="244" y="416" width="350" height="185" rx="92.5"/><path class="cls-1" d="M111.47,444.16l3.93,129.31a8.12,8.12,0,0,0,12.39,6.67l110-68.06a8.13,8.13,0,0,0-.43-14.07L123.44,436.76A8.12,8.12,0,0,0,111.47,444.16Z"/><path class="cls-1" d="M350,510.75l1.58,52a4.53,4.53,0,0,0,6.91,3.71l44.2-27.34a4.53,4.53,0,0,0-.24-7.84l-45.78-24.61A4.53,4.53,0,0,0,350,510.75Z"/><path class="cls-1" d="M403.54,388.21l-85.28,18.5c-5.3,1.15-4.46,9,1,9H489.78c5.42,0,6.26-7.8,1-9l-85.28-18.5A4.44,4.44,0,0,0,403.54,388.21Z"/><path class="cls-1" d="M405.46,629.46,490.74,611c5.3-1.15,4.46-9-1-9H319.22c-5.42,0-6.26,7.8-1,9l85.28,18.51A4.77,4.77,0,0,0,405.46,629.46Z"/><circle class="cls-2" cx="527.5" cy="479.5" r="13.5"/></g></svg>