<svg xmlns="http://www.w3.org/2000/svg" viewBox="0 0 792 1224"><defs><style>.cls-1{fill:none;}.cls-1,.cls-2{stroke:#999;stroke-miterlimit:10;stroke-width:4px;}.cls-2{fill:#999;}</style></defs><g id="Design"><rect class="cls-1" x="248.47" y="497.86" width="417.09" height="214.08" rx="80.92"/><rect class="cls-1" x="405.34" y="463.71" width="105.2" height="34.14" rx="12"/><rect class="cls-1" x="440.4" y="448.03" width="38.76" height="13.84" rx="5.42"/><rect class="cls-1" x="150.65" y="426.8" width="310.05" height="11.07" rx="4.34" transform="translate(25.75 -17.1) rotate(3.35)"/><rect class="cls-1" x="18.19" y="508.25" width="60.35" height="11.73" rx="4.34" transform="translate(419.08 154.63) rotate(51.26)"/><rect class="cls-1" x="61.65" y="558.79" width="60.35" height="11.73" rx="4.34" transform="translate(474.75 139.65) rotate(51.26)"/><rect class="cls-1" x="69.99" y="526.2" width="60.35" height="11.73" rx="4.34" transform="translate(-161.7 58.2) rotate(-18.26)"/><rect class="cls-1" x="13.68" y="543.95" width="60.35" height="11.73" rx="4.34" transform="translate(-170.1 41.44) rotate(-18.26)"/><rect class="cls-1" x="46.86" y="504.26" width="60.35" height="11.69" rx="4.34" transform="translate(590.29 562.07) rotate(104.37)"/><rect class="cls-1" x="32.81" y="568.1" width="60.35" height="11.69" rx="4.34" transform="translate(634.61 655.36) rotate(104.37)"/><rect class="cls-1" x="311.22" y="747.93" width="310.05" height="11.07" rx="4.34"/><rect class="cls-1" x="462.55" y="427.73" width="310.05" height="11.07" rx="4.34" transform="translate(-21.52 32.43) rotate(-2.96)"/><rect class="cls-1" x="505" y="519" width="160.56" height="160.56" rx="62.06"/><line class="cls-1" x1="98.98" y1="604.69" x2="270.37" y2="688.23"/><line class="cls-1" x1="67.06" y1="539.38" x2="248.38" y2="627.98"/><line class="cls-1" x1="98.98" y1="604.5" x2="67.06" y2="539.38"/><circle class="cls-2" cx="70.25" cy="541.3" r="13.41"/><line class="cls-1" x1="367.12" y1="711.76" x2="425.85" y2="747.51"/><line class="cls-1" x1="487.14" y1="711.76" x2="544.6" y2="747.51"/></g></svg>