<svg xmlns="http://www.w3.org/2000/svg" viewBox="0 0 792 1224"><defs><style>.cls-1{fill:none;stroke:#999;stroke-miterlimit:10;stroke-width:2px;}</style></defs><g id="Design"><path class="cls-1" d="M73.62,554.13v35.25a9,9,0,0,1-1.47,4.94,5.16,5.16,0,0,1,2.47,3.12l11.72,42.11a5.18,5.18,0,0,1-3,6.16H97.28v-80Z"/><path class="cls-1" d="M224.2,600.56l-119.35-35a1.78,1.78,0,0,1-.46-.22,5.21,5.21,0,0,1-2.28,1.32v79.1H224.23a2,2,0,0,1,0-.35Z"/><path class="cls-1" d="M71.58,645.71h7.79a5.17,5.17,0,0,1-3-3.39l-11.72-42.1a5.12,5.12,0,0,1-.17-1.73H63.14l11.43,41.06A5.18,5.18,0,0,1,71.58,645.71Z"/><path class="cls-1" d="M227.82,645.36a2,2,0,0,1,0,.35h36.82V612.42l-36.79-10.8Z"/><path class="cls-1" d="M269.52,611.26a1.18,1.18,0,0,0-.54-1,1.81,1.81,0,0,0-.88-.59L105.9,562A5.2,5.2,0,0,0,103,557L74.68,543.11a5.17,5.17,0,0,0-1.06-.38v-4.36a9.11,9.11,0,0,0-4.32-7.73,23.36,23.36,0,0,0,17.31-22.1h.06a4.13,4.13,0,0,0,4.1-4.77,28.26,28.26,0,0,0-35.93-22.3,5.89,5.89,0,1,0-5.12,2.09,28.24,28.24,0,0,0-14.66,20.21,4.12,4.12,0,0,0,4.09,4.77h.76a23.36,23.36,0,0,0,17,22,9.15,9.15,0,0,0-4.47,7.82v51a9,9,0,0,0,2,5.61,5.17,5.17,0,0,0-1.52,5.23l11.72,42.1a5.17,5.17,0,0,0,3,3.39H45a1.52,1.52,0,0,0-1.51,1.51v.6A1.52,1.52,0,0,0,45,649.34H267.71a1.82,1.82,0,0,0,1.81-1.82,1.84,1.84,0,0,0,0-.33,1.24,1.24,0,0,0,0-.27ZM74.57,639.55,63.14,598.49h1.33a5.12,5.12,0,0,0,.17,1.73l11.72,42.1a5.17,5.17,0,0,0,3,3.39H71.58A5.18,5.18,0,0,0,74.57,639.55Zm8.78,6.16a5.18,5.18,0,0,0,3-6.16L74.62,597.44a5.16,5.16,0,0,0-2.47-3.12,9,9,0,0,0,1.47-4.94V554.13l23.66,11.56v80Zm18.76,0v-79.1a5.21,5.21,0,0,0,2.28-1.32,1.78,1.78,0,0,0,.46.22l119.35,35v44.8a2,2,0,0,0,0,.35Zm162.5,0H227.79a2,2,0,0,0,0-.35V601.62l36.79,10.8Z"/><line class="cls-1" x1="383.39" y1="566.6" x2="394.98" y2="581.47"/><line class="cls-1" x1="411.2" y1="581.37" x2="383.35" y2="566.54"/><line class="cls-1" x1="411.27" y1="581.34" x2="452.82" y2="581.34"/><line class="cls-1" x1="344.22" y1="604.1" x2="386.37" y2="593.63"/><line class="cls-1" x1="452.82" y1="581.48" x2="441.12" y2="597.17"/><line class="cls-1" x1="441.12" y1="597.17" x2="418.68" y2="599.23"/><line class="cls-1" x1="424.15" y1="598.67" x2="398.3" y2="619.7"/><line class="cls-1" x1="395.32" y1="628.08" x2="376.7" y2="642.98"/><line class="cls-1" x1="341.79" y1="628.08" x2="321.77" y2="644.38"/><line class="cls-1" x1="384.15" y1="616.91" x2="415.34" y2="648.1"/><line class="cls-1" x1="330.61" y1="616.91" x2="363.2" y2="649.5"/><path class="cls-1" d="M314.19,597l3.94-20.69-9.5,10.19,4-21.09a25,25,0,0,0,1,43.83L324,586.51Z"/><line class="cls-1" x1="546.48" y1="566.6" x2="558.07" y2="581.47"/><line class="cls-1" x1="574.29" y1="581.37" x2="546.44" y2="566.54"/><line class="cls-1" x1="574.36" y1="581.34" x2="615.91" y2="581.34"/><line class="cls-1" x1="507.31" y1="604.1" x2="549.46" y2="593.63"/><line class="cls-1" x1="615.91" y1="581.48" x2="604.21" y2="597.17"/><line class="cls-1" x1="604.21" y1="597.17" x2="581.76" y2="599.23"/><line class="cls-1" x1="587.24" y1="598.67" x2="561.39" y2="619.7"/><line class="cls-1" x1="558.41" y1="628.08" x2="539.79" y2="642.98"/><line class="cls-1" x1="504.88" y1="628.08" x2="484.86" y2="644.38"/><line class="cls-1" x1="547.24" y1="616.91" x2="578.43" y2="648.1"/><line class="cls-1" x1="493.7" y1="616.91" x2="526.29" y2="649.5"/><path class="cls-1" d="M477.28,597l3.94-20.69-9.5,10.19,4-21.09a25,25,0,0,0,1,43.83l10.38-22.76Z"/><line class="cls-1" x1="709.57" y1="566.6" x2="721.16" y2="581.47"/><line class="cls-1" x1="737.38" y1="581.37" x2="709.53" y2="566.54"/><line class="cls-1" x1="737.45" y1="581.34" x2="779" y2="581.34"/><line class="cls-1" x1="670.4" y1="604.1" x2="712.55" y2="593.63"/><line class="cls-1" x1="779" y1="581.48" x2="767.3" y2="597.17"/><line class="cls-1" x1="767.3" y1="597.17" x2="744.85" y2="599.23"/><line class="cls-1" x1="750.33" y1="598.67" x2="724.48" y2="619.7"/><line class="cls-1" x1="721.5" y1="628.08" x2="702.88" y2="642.98"/><line class="cls-1" x1="667.96" y1="628.08" x2="647.95" y2="644.38"/><line class="cls-1" x1="710.33" y1="616.91" x2="741.52" y2="648.1"/><line class="cls-1" x1="656.79" y1="616.91" x2="689.38" y2="649.5"/><path class="cls-1" d="M640.37,597l3.94-20.69-9.5,10.19,4-21.09a25,25,0,0,0,1,43.83l10.38-22.76Z"/></g></svg>