<svg xmlns="http://www.w3.org/2000/svg" viewBox="0 0 792 1224"><defs><style>.cls-1{fill:#fff;}.cls-1,.cls-2{stroke:#999;stroke-miterlimit:10;stroke-width:5px;}.cls-2{fill:none;}</style></defs><g id="Design"><line class="cls-1" x1="437.05" y1="410.08" x2="491.62" y2="480.12"/><line class="cls-1" x1="568" y1="479.64" x2="436.83" y2="409.8"/><line class="cls-1" x1="568.34" y1="479.51" x2="764" y2="479.51"/><line class="cls-1" x1="252.56" y1="586.7" x2="451.05" y2="537.37"/><line class="cls-1" x1="764" y1="480.15" x2="708.89" y2="554.07"/><line class="cls-1" x1="708.89" y1="554.07" x2="603.2" y2="563.75"/><line class="cls-1" x1="628.97" y1="561.1" x2="507.22" y2="660.18"/><line class="cls-1" x1="493.23" y1="699.65" x2="405.53" y2="769.81"/><line class="cls-1" x1="241.1" y1="699.65" x2="146.82" y2="776.38"/><line class="cls-1" x1="440.61" y1="647.03" x2="587.51" y2="793.92"/><line class="cls-1" x1="188.48" y1="647.03" x2="341.95" y2="800.5"/><path class="cls-2" d="M111.13,553.4,129.68,456,85,504l18.91-99.34a117.75,117.75,0,0,0,4.52,206.42l48.92-107.19Z"/></g></svg>